<svg id="visual" viewBox="0 0 900 600" width="900" height="600" xmlns="http://www.w3.org/2000/svg" xmlns:xlink="http://www.w3.org/1999/xlink" version="1.1"><path d="M44 0L43 0L43 26L47 26L47 52L40 52L40 78L44 78L44 104L48 104L48 130L55 130L55 157L48 157L48 183L44 183L44 209L52 209L52 235L46 235L46 261L51 261L51 287L53 287L53 313L38 313L38 339L47 339L47 365L47 365L47 391L47 391L47 417L48 417L48 443L51 443L51 470L39 470L39 496L51 496L51 522L41 522L41 548L43 548L43 574L50 574L50 600L0 600L0 574L0 574L0 548L0 548L0 522L0 522L0 496L0 496L0 470L0 470L0 443L0 443L0 417L0 417L0 391L0 391L0 365L0 365L0 339L0 339L0 313L0 313L0 287L0 287L0 261L0 261L0 235L0 235L0 209L0 209L0 183L0 183L0 157L0 157L0 130L0 130L0 104L0 104L0 78L0 78L0 52L0 52L0 26L0 26L0 0L0 0Z" fill="#02acc5"></path><path d="M31 0L30 0L30 26L37 26L37 52L36 52L36 78L30 78L30 104L39 104L39 130L34 130L34 157L39 157L39 183L34 183L34 209L30 209L30 235L42 235L42 261L38 261L38 287L33 287L33 313L37 313L37 339L38 339L38 365L32 365L32 391L34 391L34 417L35 417L35 443L37 443L37 470L44 470L44 496L35 496L35 522L33 522L33 548L31 548L31 574L40 574L40 600L0 600L0 574L0 574L0 548L0 548L0 522L0 522L0 496L0 496L0 470L0 470L0 443L0 443L0 417L0 417L0 391L0 391L0 365L0 365L0 339L0 339L0 313L0 313L0 287L0 287L0 261L0 261L0 235L0 235L0 209L0 209L0 183L0 183L0 157L0 157L0 130L0 130L0 104L0 104L0 78L0 78L0 52L0 52L0 26L0 26L0 0L0 0Z" fill="#3c6d97"></path><path d="M27 0L26 0L26 26L25 26L25 52L25 52L25 78L25 78L25 104L33 104L33 130L29 130L29 157L23 157L23 183L28 183L28 209L32 209L32 235L27 235L27 261L30 261L30 287L31 287L31 313L29 313L29 339L24 339L24 365L26 365L26 391L27 391L27 417L23 417L23 443L25 443L25 470L29 470L29 496L33 496L33 522L32 522L32 548L33 548L33 574L33 574L33 600L0 600L0 574L0 574L0 548L0 548L0 522L0 522L0 496L0 496L0 470L0 470L0 443L0 443L0 417L0 417L0 391L0 391L0 365L0 365L0 339L0 339L0 313L0 313L0 287L0 287L0 261L0 261L0 235L0 235L0 209L0 209L0 183L0 183L0 157L0 157L0 130L0 130L0 104L0 104L0 78L0 78L0 52L0 52L0 26L0 26L0 0L0 0Z" fill="#403452"></path><path d="M19 0L18 0L18 26L17 26L17 52L17 52L17 78L16 78L16 104L22 104L22 130L17 130L17 157L18 157L18 183L20 183L20 209L19 209L19 235L20 235L20 261L19 261L19 287L18 287L18 313L21 313L21 339L18 339L18 365L19 365L19 391L20 391L20 417L17 417L17 443L17 443L17 470L20 470L20 496L17 496L17 522L22 522L22 548L23 548L23 574L21 574L21 600L0 600L0 574L0 574L0 548L0 548L0 522L0 522L0 496L0 496L0 470L0 470L0 443L0 443L0 417L0 417L0 391L0 391L0 365L0 365L0 339L0 339L0 313L0 313L0 287L0 287L0 261L0 261L0 235L0 235L0 209L0 209L0 183L0 183L0 157L0 157L0 130L0 130L0 104L0 104L0 78L0 78L0 52L0 52L0 26L0 26L0 0L0 0Z" fill="#1f0512"></path></svg>